<?xml version="1.0" encoding="utf-8"?>
<!-- Generator: Adobe Illustrator 25.4.1, SVG Export Plug-In . SVG Version: 6.00 Build 0)  -->
<svg version="1.1" id="Capa_1" xmlns="http://www.w3.org/2000/svg" xmlns:xlink="http://www.w3.org/1999/xlink" x="0px" y="0px"
	 viewBox="0 0 800 800" style="enable-background:new 0 0 800 800;" xml:space="preserve">
<style type="text/css">
	.st0{fill:#CE0E2D;}
	.st1{fill:none;}
	.st2{fill:#FFFFFF;}
</style>
<path class="st0" d="M326.6,75.1c-19.9,4.6-46.4,12.6-75.4,27.2c0,0-47.4,23.9-85.3,61.9c-130.2,130.2-130.2,341.2,0,471.4
	s341.2,130.2,471.4,0s130.2-341.2,0-471.4c-35.2-35.2-79.1-58.6-79.1-58.6c-16.2-8.6-44.5-22-81.6-30.5
	C414.1,60.7,360.1,67.7,326.6,75.1z"/>
<g id="页面-1">
	<g id="System" transform="translate(-334.000000, -192.000000)">
		<g id="certificate_line" transform="translate(334.000000, 192.000000)">
			<path id="MingCute" class="st1" d="M51.6,750V50h700v700"/>
			<path id="形状" class="st2" d="M370.2,179.7c16.5-16.5,42.6-17.3,60.1-2.6l2.8,2.6l42.3,42.3h59.8c23.5,0,42.7,18.2,44.4,41.2
				l0.1,3.3v59.8l42.3,42.3c16.5,16.5,17.3,42.6,2.6,60.1l-2.6,2.8l-42.3,42.3v59.8c0,23.5-18.2,42.7-41.2,44.4l-3.3,0.1h-59.8
				l-42.3,42.3c-16.5,16.5-42.6,17.3-60.1,2.6l-2.8-2.6L327.9,578h-59.8c-23.5,0-42.7-18.2-44.4-41.2l-0.1-3.3v-59.8l-42.3-42.3
				c-16.5-16.5-17.3-42.6-2.6-60.1l2.6-2.8l42.3-42.3v-59.8c0-23.5,18.2-42.7,41.2-44.4l3.3-0.1h59.8L370.2,179.7z M401.6,211.2
				l-42.3,42.3c-7.4,7.4-17.2,11.9-27.6,12.9l-3.9,0.2h-59.8v59.8c0,10.5-3.7,20.6-10.4,28.6l-2.6,2.9L212.8,400l42.3,42.3
				c7.4,7.4,11.9,17.2,12.9,27.6l0.2,3.9v59.8h59.8c10.5,0,20.6,3.7,28.6,10.4l2.9,2.6l42.3,42.3l42.3-42.3
				c7.4-7.4,17.2-11.9,27.6-12.9l3.9-0.2h59.8v-59.8c0-10.5,3.7-20.6,10.4-28.6l2.6-2.9l42.3-42.3l-42.3-42.3
				c-7.4-7.4-11.9-17.2-12.9-27.6l-0.2-3.9v-59.8h-59.8c-10.5,0-20.6-3.7-28.6-10.4l-2.9-2.6L401.6,211.2z M470.2,332.9
				c8.7-8.7,22.8-8.7,31.5,0c8,8,8.6,20.6,1.9,29.4l-1.9,2.1L393,472.9c-8.9,8.9-22.9,9.5-32.5,1.9l-2.1-1.9l-53.5-53.5
				c-8.7-8.7-8.7-22.8,0-31.5c8-8,20.6-8.6,29.4-1.9l2.1,1.9l39.3,39.3L470.2,332.9z"/>
		</g>
	</g>
</g>
</svg>
