<?xml version="1.0" encoding="utf-8"?>
<!-- Generator: Adobe Illustrator 25.4.1, SVG Export Plug-In . SVG Version: 6.00 Build 0)  -->
<svg version="1.1" id="Capa_1" xmlns="http://www.w3.org/2000/svg" xmlns:xlink="http://www.w3.org/1999/xlink" x="0px" y="0px"
	 viewBox="0 0 800 800" style="enable-background:new 0 0 800 800;" xml:space="preserve">
<style type="text/css">
	.st0{fill-rule:evenodd;clip-rule:evenodd;fill:#CE0E2D;}
	.st1{fill:#CE0E2D;}
	.st2{fill:none;stroke:#FFFFFF;stroke-width:42.5197;stroke-linecap:round;stroke-linejoin:round;stroke-miterlimit:125;}
</style>
<path class="st0" d="M9.7,441c0-13.8,11.2-25,25-25l363.9,0l-83.3-83.3c-9.8-9.8-9.8-25.6,0-35.4s25.6-9.8,35.4,0l126,126
	c9.8,9.8,9.8,25.6,0,35.4l-126,126c-9.8,9.8-25.6,9.8-35.4,0c-9.8-9.8-9.8-25.6,0-35.4l83.3-83.3l-363.9,0
	C20.9,466,9.7,454.8,9.7,441z"/>
<path class="st1" d="M134.2,366l143.8,0c-27.3-29.4-26.6-75.4,2-104c29.3-29.3,76.8-29.3,106.1,0l126,126
	c29.3,29.3,29.3,76.8,0,106.1l-126,126c-29.3,29.3-76.8,29.3-106.1,0c-28.6-28.6-29.3-74.6-2-104l-143.8,0
	c13.5,58.9,43.2,114.8,89.1,160.7c130.2,130.2,341.2,130.2,471.4,0c130.2-130.2,130.2-341.2,0-471.4
	c-130.2-130.2-341.2-130.2-471.4,0C177.4,251.2,147.7,307.1,134.2,366z"/>
<polyline class="st2" points="706,328.5 617.6,553.5 562,497.9 "/>
</svg>
